<svg xmlns="http://www.w3.org/2000/svg" viewBox="0 0 150 384.79"><defs><style>.cls-1{fill:#00c8ff;}.cls-2{fill:#0064ff;}</style></defs><title>bottle_2</title><g id="Layer_2" data-name="Layer 2"><g id="Layer_2-2" data-name="Layer 2"><path class="cls-1" d="M148.36,161c.4-3.4.73-7,.95-10.9,1.92-34.52-33.08-80.06-44.65-88.69,8.56-15.82,2.94-19.66-.89-26.85C106.64,25,101.85,7.26,99.45,3.9S75,0,75,0,52.95.55,50.55,3.9,43.36,25,46.24,34.59c-3.84,7.19-9.45,11-.89,26.85C33.77,70.06-1.22,115.6.69,150.12c.22,3.9.55,7.5.95,10.9C1.71,161,79.62,176,148.36,161Z"/><path class="cls-2" d="M143.36,244.47c-.57-3.64-1.16-7.49-1.73-11.6-4.25-30.62,3.56-43.9,6.72-70.6-68.74,14.94-146.65,0-146.71,0,3.16,26.7,11,40,6.72,70.6-.6,4.31-1.21,8.34-1.81,12.14C26.92,244,95.41,241.09,143.36,244.47Z"/><path class="cls-1" d="M149.38,308.09c2.18-20.69-1.77-35.81-6-62.7-47.95-3.38-116.45-.47-136.81.54-4.22,26.56-8.1,41.61-5.94,62.17,2.47,23.49,3.48,47-.62,56.09,4.53,12.46,30.9,20.61,75,20.61s70.47-8.15,75-20.61C145.9,355.07,146.91,331.58,149.38,308.09Z"/></g></g></svg>